<svg width="208" height="209" viewBox="0 0 208 209" fill="none" xmlns="http://www.w3.org/2000/svg">
<g clip-path="url(#clip0_86_68)">
<path opacity="0.18" d="M202.816 100.533C199.439 116.091 196.06 131.638 192.679 147.174C191.359 153.247 190.028 159.358 187.652 165.083C185.928 169.235 183.658 173.138 180.903 176.687C172.564 187.476 160.025 195.041 146.512 196.887C137.896 198.064 129.092 197.071 120.492 198.357C109.636 199.985 99.6138 205.152 88.8932 207.502C73.5888 210.861 57.386 208.278 42.8934 202.287C31.4801 197.57 11.9491 189.093 4.3348 176.697C2.82743 174.322 1.81326 171.666 1.35293 168.888C-2.43528 144.411 2.25669 114.377 10.3364 91.2143C26.0304 46.1688 66.9377 10.9248 113.701 2.10028C131.435 -1.24285 150.192 -0.938933 167.033 5.55738C183.875 12.0537 198.557 25.22 204.569 42.283C211.123 60.8493 206.999 81.288 202.816 100.533Z" fill="#543C52"/>
<path d="M180.903 176.698C172.564 187.487 160.025 195.052 146.512 196.897C137.896 198.075 129.091 197.082 120.492 198.368C109.636 199.996 99.6138 205.163 88.8931 207.513C73.5887 210.872 57.386 208.289 42.8934 202.297C31.48 197.57 11.9491 189.093 4.33478 176.698H180.903Z" fill="#543C52"/>
<path d="M102.855 179.84C85.4297 175.791 67.257 177.452 49.4524 179.129C47.8289 179.281 46.1459 179.455 44.7605 180.312C43.3751 181.17 42.4064 182.944 42.9962 184.469C43.5374 185.81 44.9769 186.494 46.3407 186.949C54.9995 189.886 64.3942 189.185 73.5238 188.768C103.104 187.422 133.053 189.419 162.054 183.292C165.009 182.667 168.17 181.826 170.069 179.493C164.63 176.719 158.071 177.479 152.21 179.161C146.35 180.844 140.678 183.4 134.617 184.073C131.213 184.448 130.071 180.866 127.252 179.569C125.087 178.57 123.674 178.82 121.456 179.493C114.577 181.566 109.972 181.495 102.855 179.84Z" fill="url(#paint0_linear_86_68)"/>
<path d="M81.5548 176.757C80.7244 176.752 79.9108 176.522 79.2006 176.09C78.4904 175.658 77.9101 175.042 77.5215 174.306C77.1329 173.57 76.9505 172.742 76.9936 171.91C77.0368 171.079 77.3039 170.274 77.7666 169.583C78.2093 168.921 78.8155 168.386 79.5261 168.029C80.2366 167.672 81.0273 167.507 81.8207 167.548C82.6142 167.59 83.3834 167.837 84.0533 168.265C84.7231 168.694 85.2706 169.289 85.6425 169.994C86.0143 170.698 86.1976 171.487 86.1746 172.283C86.1516 173.08 85.9231 173.856 85.5112 174.538C85.0994 175.219 84.5184 175.782 83.825 176.171C83.1315 176.56 82.3493 176.762 81.5548 176.757ZM79.9908 171.097C79.7829 171.408 79.6716 171.773 79.6708 172.148C79.6701 172.522 79.7801 172.888 79.9868 173.2C80.1935 173.512 80.4877 173.755 80.8322 173.9C81.1768 174.044 81.5562 174.082 81.9226 174.01C82.289 173.938 82.6258 173.759 82.8907 173.495C83.1555 173.231 83.3365 172.895 83.4106 172.528C83.4848 172.161 83.4488 171.78 83.3073 171.434C83.1658 171.087 82.925 170.79 82.6155 170.581C82.199 170.301 81.6889 170.198 81.1969 170.295C80.7049 170.392 80.2712 170.68 79.9908 171.097Z" fill="#2E2E3F"/>
<path d="M47.8884 176.757C47.0573 176.754 46.2425 176.525 45.5312 176.093C44.8199 175.662 44.2388 175.045 43.8498 174.309C43.4609 173.572 43.2787 172.743 43.3228 171.911C43.3669 171.078 43.6356 170.274 44.1002 169.583C44.5429 168.921 45.1491 168.386 45.8597 168.029C46.5703 167.672 47.3609 167.507 48.1544 167.548C48.9479 167.59 49.7171 167.837 50.3869 168.265C51.0567 168.694 51.6043 169.289 51.9761 169.994C52.3479 170.698 52.5313 171.487 52.5083 172.283C52.4853 173.08 52.2567 173.856 51.8449 174.538C51.433 175.219 50.852 175.782 50.1586 176.171C49.4652 176.56 48.683 176.762 47.8884 176.757ZM46.3299 171.097C46.1213 171.408 46.0093 171.774 46.0082 172.148C46.0071 172.523 46.1168 172.89 46.3235 173.202C46.5302 173.514 46.8246 173.758 47.1694 173.902C47.5142 174.046 47.894 174.085 48.2607 174.013C48.6273 173.94 48.9644 173.761 49.2292 173.496C49.4941 173.232 49.6748 172.895 49.7485 172.528C49.8222 172.16 49.7856 171.779 49.6433 171.433C49.501 171.086 49.2594 170.79 48.9491 170.581C48.5335 170.301 48.0242 170.199 47.5331 170.295C47.042 170.392 46.6092 170.68 46.3299 171.097Z" fill="#2E2E3F"/>
<path d="M119.112 81.0981C118.949 81.6342 118.711 82.1441 118.403 82.6122C117.797 83.3356 117.029 83.9063 116.163 84.2784C112.732 86.0422 107.504 87.9417 104.593 90.4925C104.239 90.7742 103.946 91.125 103.732 91.5236C103.315 92.43 103.732 93.4774 104.116 94.3892C104.289 94.9052 104.595 95.3659 105.004 95.7243C105.745 96.267 106.774 96.0336 107.656 95.7731C111.039 94.7616 114.366 93.5714 117.624 92.2075C119.447 91.4703 121.217 90.609 122.922 89.6296C123.606 89.2769 124.2 88.7719 124.659 88.1534C124.982 87.5962 125.196 86.9831 125.292 86.3461C125.908 83.0569 126.322 79.7328 126.532 76.3927L127.181 68.5559C127.311 67.0471 131.889 61.7665 130.509 60.7299C127.804 58.7002 123.869 64.225 123.252 65.3593C121.51 68.5559 119.789 79.166 119.112 81.0981Z" fill="#543C52"/>
<path d="M119.112 81.0981C118.949 81.6342 118.711 82.1441 118.403 82.6122C117.797 83.3356 117.029 83.9063 116.163 84.2784C112.732 86.0422 107.504 87.9417 104.593 90.4925C104.239 90.7742 103.946 91.125 103.732 91.5236C103.315 92.43 103.732 93.4774 104.116 94.3892C104.289 94.9052 104.595 95.3659 105.004 95.7243C105.745 96.267 106.774 96.0336 107.656 95.7731C111.039 94.7616 114.366 93.5714 117.624 92.2075C119.447 91.4703 121.217 90.609 122.922 89.6296C123.606 89.2769 124.2 88.7719 124.659 88.1534C124.982 87.5962 125.196 86.9831 125.292 86.3461C125.908 83.0569 126.322 79.7328 126.532 76.3927L127.181 68.5559C127.311 67.0471 131.889 61.7665 130.509 60.7299C127.804 58.7002 123.869 64.225 123.252 65.3593C121.51 68.5559 119.789 79.166 119.112 81.0981Z" fill="url(#paint1_linear_86_68)"/>
<path d="M161.14 165.979C161.577 166.679 161.805 167.491 161.795 168.318C161.744 168.628 161.628 168.924 161.454 169.187C161.281 169.449 161.054 169.671 160.788 169.839C160.523 170.006 160.225 170.116 159.914 170.16C159.604 170.203 159.287 170.181 158.986 170.093C158.496 169.889 158.051 169.591 157.676 169.213C153.147 165.176 149.559 160.199 146.312 155.043C145.435 153.643 144.585 152.226 143.839 150.756C141.315 145.772 139.99 140.265 139.969 134.675C139.935 134.354 140.013 134.032 140.191 133.763C140.377 133.574 140.617 133.447 140.878 133.4C143.119 132.77 146.609 132.71 148.59 134.176C150.814 135.804 150.278 140.933 150.181 143.266C150.068 144.262 150.168 145.27 150.473 146.224C150.879 147.04 151.429 147.776 152.097 148.395C156.637 153.285 158.212 160.063 161.14 165.979Z" fill="#F3BD8F"/>
<path d="M133.053 154.848C133.522 161.188 132.688 167.557 130.601 173.561C130.474 174.104 130.183 174.595 129.768 174.966C129.487 175.14 129.165 175.235 128.835 175.243C128.505 175.251 128.179 175.17 127.89 175.01C126.424 174.293 125.909 172.73 125.66 171.211C124.572 164.505 124.054 157.718 124.113 150.924C124.113 147.716 124.205 144.661 123.956 141.47C123.707 138.186 123.339 134.908 123.339 131.609C123.278 131.281 123.34 130.943 123.512 130.659C123.648 130.533 123.811 130.439 123.988 130.384C124.164 130.328 124.351 130.313 124.535 130.339C126.884 130.339 131.17 128.982 132.999 130.48C135.407 132.45 131.554 141.112 131.17 143.619C130.526 147.803 132.339 149.046 132.874 153.176C132.945 153.762 133.004 154.305 133.053 154.848Z" fill="#F5BD8D"/>
<path d="M121.228 131.647C121.173 132.282 121.331 132.919 121.677 133.454C122.038 133.827 122.498 134.087 123.003 134.203C125.579 135.006 128.296 135.174 130.986 135.343C131.808 135.391 132.717 135.413 133.351 134.892C133.743 134.51 134.035 134.036 134.2 133.514L137.187 126.182C136.964 128.769 136.897 131.368 136.987 133.964C136.944 134.521 137.108 135.074 137.447 135.516C137.882 135.852 138.426 136.015 138.973 135.972C143.119 136.129 147.27 135.827 151.35 135.071C152.93 129.226 152.973 123.045 152.189 117.042C151.88 114.703 151.42 112.321 150.181 110.313C149.878 109.764 149.447 109.296 148.926 108.95C148.144 108.575 147.278 108.412 146.414 108.478C140.148 108.413 133.783 108.267 127.555 109.157C125.612 109.433 124.594 110.041 123.918 111.946C122.943 114.948 122.264 118.038 121.889 121.172C121.392 124.641 121.171 128.143 121.228 131.647Z" fill="#2E2E3F"/>
<path d="M151.35 135.071L150.376 135.239C146.61 135.871 142.789 136.116 138.973 135.972C138.426 136.015 137.882 135.852 137.447 135.516C137.108 135.074 136.944 134.521 136.987 133.964C136.903 131.55 136.958 129.132 137.15 126.724C137.15 126.665 137.15 126.599 137.15 126.54C137.15 126.48 137.15 126.301 137.177 126.182C136.181 128.618 135.191 131.066 134.195 133.503C134.029 134.026 133.737 134.499 133.345 134.881C132.712 135.424 131.803 135.381 130.98 135.332H130.607C128.042 135.169 125.46 134.979 123.03 134.214C122.525 134.1 122.063 133.84 121.704 133.465C121.358 132.929 121.2 132.293 121.255 131.658C121.196 128.145 121.417 124.633 121.916 121.156C122.29 118.037 122.966 114.961 123.934 111.973C124.611 110.068 125.628 109.46 127.571 109.184C133.8 108.294 140.164 108.44 146.431 108.505C147.212 108.46 147.994 108.582 148.725 108.863C148.8 108.896 148.873 108.934 148.942 108.977C149.464 109.323 149.894 109.791 150.197 110.34C151.437 112.348 151.897 114.73 152.205 117.069C152.984 123.045 152.93 129.226 151.35 135.071Z" fill="url(#paint2_linear_86_68)"/>
<path d="M151.35 135.071L150.376 135.239C150.144 135.119 149.918 134.987 149.699 134.843C149.163 134.547 148.712 134.117 148.39 133.595C148.153 133.067 148.039 132.492 148.054 131.913C147.876 127.072 148.796 122.144 147.816 117.417C147.464 115.713 146.761 114.16 146.258 112.532C145.798 111.029 146.826 110.133 148.033 109.276C148.245 109.117 148.472 108.977 148.709 108.858C148.784 108.891 148.856 108.929 148.926 108.972C149.447 109.318 149.878 109.785 150.181 110.334C151.42 112.342 151.88 114.725 152.189 117.064C152.984 123.045 152.93 129.226 151.35 135.071Z" fill="url(#paint3_linear_86_68)"/>
<path d="M137.182 126.192C136.186 128.629 135.196 131.077 134.2 133.514C134.035 134.036 133.743 134.51 133.351 134.892C132.717 135.435 131.808 135.391 130.986 135.343H130.612C130.472 135.267 130.34 135.178 130.217 135.077C129.759 134.688 129.432 134.165 129.283 133.582C129.133 132.998 129.169 132.383 129.384 131.82C129.649 131.279 129.983 130.776 130.379 130.322C132.739 127.289 134.027 123.582 135.282 119.946C135.958 120.729 136.472 121.638 136.798 122.621C137.146 123.777 137.277 124.988 137.182 126.192Z" fill="url(#paint4_linear_86_68)"/>
<path d="M135.964 56.0735C135.939 57.053 135.554 57.9885 134.882 58.7002C133.886 59.6011 132.376 59.5469 131.126 60.0516C130.969 60.104 130.826 60.1933 130.71 60.3121C130.617 60.4217 130.552 60.552 130.52 60.692C130.36 61.3458 130.411 62.0339 130.666 62.6566C131.048 63.5889 131.629 64.4261 132.367 65.1096C133.106 65.793 133.984 66.3062 134.942 66.613C136.866 67.2174 138.905 67.3605 140.895 67.0309C141.555 66.9923 142.198 66.8069 142.778 66.4882C143.393 66.0185 143.882 65.4031 144.201 64.6972C144.588 64.0529 144.847 63.3398 144.964 62.5969C145.018 62.223 144.973 61.8416 144.834 61.4904C144.696 61.1392 144.468 60.8303 144.174 60.5943C143.898 60.4263 143.604 60.2897 143.297 60.1873C142.816 60.0018 142.353 59.7691 141.917 59.4926C141.47 59.2627 141.121 58.8767 140.938 58.4072C140.862 58.0107 140.879 57.6021 140.987 57.2132C141.233 55.8932 141.233 54.5388 140.987 53.2188C140.928 52.8277 140.807 52.4484 140.629 52.0954C140.463 51.7951 140.23 51.537 139.948 51.3407C139.667 51.1444 139.344 51.0152 139.006 50.9629C138.667 50.9105 138.321 50.9364 137.993 51.0386C137.666 51.1409 137.366 51.3167 137.117 51.5527C135.84 52.7195 136.116 54.5647 135.964 56.0735Z" fill="#F3BD8F"/>
<path d="M129.974 49.0562C129.9 49.956 129.975 50.8618 130.195 51.7372C130.834 53.8158 133.026 55.1563 135.196 55.2431C135.908 55.2991 136.622 55.1623 137.263 54.847C137.63 54.6368 137.969 54.3795 138.27 54.0817C139.785 52.6924 141.181 51.0317 141.641 49.0236C141.798 48.2618 141.864 47.4837 141.836 46.7062C141.855 45.5611 141.657 44.4229 141.252 43.3522C140.847 42.4063 140.205 41.5814 139.389 40.9576C138.572 40.3338 137.609 39.9323 136.592 39.792C134.498 39.5261 132.533 40.5898 131.002 41.9086C130.233 42.5707 130.347 43.8732 130.25 44.8664C130.114 46.2503 130.022 47.656 129.974 49.0562Z" fill="#F3BD8F"/>
<path d="M130.233 37.4799C129.649 38.4839 129.254 39.6508 128.35 40.3726C127.977 40.6657 127.538 40.8773 127.192 41.1975C126.747 41.6687 126.487 42.2861 126.461 42.9348C126.435 43.5836 126.645 44.2198 127.051 44.7252C127.478 45.2138 128.032 45.5739 128.652 45.7656C129.271 45.9572 129.931 45.9728 130.558 45.8106C131.815 45.4587 132.89 44.6372 133.562 43.5149C134.011 42.8094 134.411 41.9519 135.185 41.6914C135.528 41.6132 135.885 41.6172 136.226 41.703C136.567 41.7888 136.884 41.954 137.15 42.1853C137.718 42.5977 138.194 43.1404 138.773 43.5095C139.119 43.6874 139.45 43.8925 139.763 44.1228C140.694 44.9314 140.554 46.3913 140.337 47.607C140.727 47.7264 140.802 47.0263 141.143 46.8038C141.484 46.5813 141.879 46.9069 141.939 47.2705C141.959 47.6381 141.854 48.0016 141.641 48.3017C140.754 49.8593 139.704 51.3897 139.406 53.1536C139.346 53.3885 139.357 53.6361 139.439 53.8645C139.618 54.136 139.892 54.3299 140.207 54.4072C140.749 54.6424 141.333 54.7625 141.923 54.76C142.218 54.7552 142.507 54.6805 142.768 54.5418C143.028 54.4031 143.253 54.2045 143.422 53.9622C143.589 53.6478 143.69 53.3024 143.719 52.9473C143.793 51.7704 143.952 50.6005 144.196 49.4468C144.85 47.1783 146.793 45.2028 146.506 42.8637C146.296 41.8064 145.854 40.8091 145.213 39.9439C144.838 39.2864 144.38 38.6807 143.849 38.142C143.327 37.694 142.753 37.3113 142.139 37.0023C140.872 36.2444 139.484 35.7103 138.037 35.423C136.322 35.1625 134.79 35.7215 133.112 35.8029C131.792 35.8626 130.969 36.1828 130.233 37.4799Z" fill="#2E2E3F"/>
<path d="M149.862 110.806C148.892 111.483 147.782 111.93 146.615 112.114C140.392 113.498 133.941 113.487 127.722 112.082C126.424 111.783 124.979 111.306 124.416 110.09C124.164 109.422 124.069 108.705 124.14 107.995C124.288 101.287 124.436 94.5774 124.584 87.8658C124.751 80.2406 124.919 72.5883 126.034 65.0446C126.362 63.4854 126.979 62.0018 127.852 60.6703C128.577 59.6771 131.862 60.209 134.606 58.4289C135.358 57.9404 133.724 60.4641 136.181 61.5061C138.73 62.5915 141.593 57.5063 143.14 59.5469C144.012 60.6866 146.782 59.8399 147.659 60.9742C148.363 61.886 148.796 63.8126 149.072 66.1354C149.656 71.0687 149.51 77.7659 149.613 80.2026C150.073 88.7287 149.358 99.6047 152.167 106.644C152.811 108.174 151.128 109.802 149.862 110.806Z" fill="#543C52"/>
<path d="M149.862 110.806C148.892 111.483 147.782 111.93 146.615 112.114C145.061 112.459 143.489 112.719 141.906 112.89L141.463 112.831C142.621 109.032 142.675 105.037 142.642 101.086C142.642 98.9154 142.578 96.7174 142.534 94.5357C142.507 93.1572 142.458 91.7081 141.75 90.5304C141.041 89.3527 139.428 88.6038 138.248 89.3147C140.278 88.0882 141.939 82.8998 142.772 80.7724C143.971 77.6904 144.81 74.4797 145.273 71.2043C145.586 68.9575 145.467 65.0065 148.898 66.0702L149.088 66.1353C149.672 71.0686 149.526 77.7658 149.629 80.2025C150.089 88.7286 149.375 99.6046 152.183 106.644C152.811 108.174 151.128 109.802 149.862 110.806Z" fill="url(#paint5_linear_86_68)"/>
<path d="M130.471 171.835C130.667 171.851 130.849 171.943 130.98 172.09C131.063 172.258 131.095 172.447 131.072 172.633C131.072 173.718 131.759 174.7 131.722 175.775C131.695 176.736 131.099 177.636 131.18 178.597C131.18 178.787 131.229 179.01 131.094 179.14C131.006 179.212 130.899 179.258 130.785 179.27C128.069 179.791 125.339 180.245 122.597 180.632C122.091 180.767 121.553 180.709 121.088 180.469C120.877 180.308 120.711 180.095 120.606 179.851C119.864 178.337 120.525 176.48 121.531 175.129C123.994 171.802 126.369 171.004 130.471 171.835Z" fill="#2E2E3F"/>
<path d="M164.668 171.411C164.477 172.277 163.986 173.046 163.283 173.582C161.54 175.197 159.548 176.516 157.384 177.49C156.948 177.735 156.448 177.841 155.95 177.794C155.572 177.684 155.241 177.453 155.008 177.137C154.774 176.82 154.651 176.435 154.657 176.041C154.683 175.253 154.887 174.481 155.252 173.783C156.296 171.363 157.021 167.813 159.808 166.853C162.244 166.033 164.928 169.002 164.668 171.411Z" fill="#2E2E3F"/>
<path d="M130.471 171.835C130.667 171.851 130.849 171.943 130.98 172.09C131.063 172.258 131.095 172.447 131.072 172.633C131.072 173.718 131.759 174.7 131.722 175.775C131.695 176.736 131.099 177.636 131.18 178.597C131.18 178.787 131.229 179.01 131.094 179.14C131.006 179.212 130.899 179.258 130.785 179.27C128.069 179.791 125.339 180.245 122.597 180.632C122.091 180.767 121.553 180.709 121.088 180.469C120.877 180.308 120.711 180.095 120.606 179.851C119.864 178.337 120.525 176.48 121.531 175.129C123.994 171.802 126.369 171.004 130.471 171.835Z" fill="url(#paint6_linear_86_68)"/>
<path d="M163.283 173.593C161.541 175.207 159.548 176.527 157.384 177.501C156.948 177.746 156.448 177.852 155.95 177.805" fill="url(#paint7_linear_86_68)"/>
<path d="M144.553 80.4957C144.647 81.1759 144.574 81.8687 144.342 82.5146C143.952 83.4101 143.048 83.9528 142.177 84.4358L122.982 95.3281C122.083 95.8383 121.12 96.4135 120.736 97.3796C119.892 99.5504 122.538 101.499 124.838 101.672C127.246 101.852 129.616 101.13 131.9 100.332C139.115 97.8371 146.082 94.6758 152.714 90.8887C153.533 90.5834 154.22 89.9998 154.655 89.2393C155.09 88.4789 155.246 87.5896 155.095 86.7261C155.114 81.4124 154.708 76.1058 153.883 70.857C153.433 67.9861 152.8 64.9849 150.868 62.8086C148.011 59.5523 142.794 59.4546 142.345 64.225C141.847 69.6414 144.19 75.1662 144.553 80.4957Z" fill="#543C52"/>
<path d="M144.553 80.4957C144.647 81.1759 144.574 81.8687 144.342 82.5146C143.952 83.4101 143.048 83.9528 142.177 84.4358L122.982 95.3281C122.083 95.8383 121.12 96.4135 120.736 97.3796C119.892 99.5504 122.538 101.499 124.838 101.672C127.246 101.852 129.616 101.13 131.9 100.332C139.115 97.8371 146.082 94.6758 152.714 90.8887C153.533 90.5834 154.22 89.9998 154.655 89.2393C155.09 88.4789 155.246 87.5896 155.095 86.7261C155.114 81.4124 154.708 76.1058 153.883 70.857C153.433 67.9861 152.8 64.9849 150.868 62.8086C148.011 59.5523 142.794 59.4546 142.345 64.225C141.847 69.6414 144.19 75.1662 144.553 80.4957Z" fill="url(#paint8_linear_86_68)"/>
<path d="M118.268 97.1354C116.883 97.1313 115.548 97.6551 114.534 98.6007C114.04 99.0835 113.707 99.7079 113.581 100.388C113.455 101.068 113.542 101.771 113.83 102.4C114.036 102.821 114.394 103.147 114.832 103.311C115.218 103.418 115.627 103.405 116.006 103.274C117.088 102.942 117.981 102.101 119.042 101.645C119.299 101.519 119.592 101.486 119.87 101.553C120.049 101.644 120.219 101.751 120.379 101.873C120.601 101.995 120.85 102.064 121.103 102.072C121.357 102.08 121.609 102.029 121.84 101.922C122.298 101.699 122.685 101.351 122.955 100.918C123.346 100.374 123.538 99.7102 123.496 99.0403C123.388 98.0092 122.792 97.6781 121.905 97.575C120.687 97.4447 119.518 97.092 118.268 97.1354Z" fill="#F3BD8F"/>
<path d="M100.436 93.7868C99.9248 94.4165 99.5738 95.1615 99.4136 95.9577C99.3285 96.3345 99.3415 96.727 99.4515 97.0974C99.6079 97.4578 99.8682 97.763 100.199 97.9739C100.53 98.1847 100.916 98.2915 101.308 98.2805C102.093 98.2474 102.855 98.0098 103.521 97.5912C104.758 96.8763 105.939 96.069 107.055 95.1762C107.286 95.0182 107.492 94.8261 107.666 94.6063C107.874 94.267 107.959 93.8669 107.909 93.4722C107.859 93.0774 107.676 92.7117 107.39 92.4354C105.561 90.5956 101.811 92.0772 100.436 93.7868Z" fill="#F3BD8F"/>
<path d="M83.0864 156.476H37.4763L19.7745 108.12H96.8159L83.0864 156.476ZM39.365 153.762H81.0353L93.2279 110.823H23.6493L39.365 153.762Z" fill="#543C52"/>
<path d="M101.086 156.476H55.4703L37.7739 108.12H116.136L101.086 156.476ZM57.3698 153.762H99.0402L111.233 110.823H41.6758L57.3698 153.762Z" fill="#543C52"/>
<path d="M101.356 156.503H79.7527L89.4289 122.285L97.4166 97.4338L119.204 97.7269L101.356 156.503ZM83.3298 153.789H99.354L115.589 100.392L99.3973 100.175L92.0049 123.072L83.3298 153.789Z" fill="#543C52"/>
<path d="M101.313 170.017H48.4296V167.303H98.6072V155.13H101.313V170.017Z" fill="#543C52"/>
<path d="M83.6113 170.017H40.5555V167.303H80.9054V155.13H83.6113V170.017Z" fill="#543C52"/>
<path d="M92.5894 176.757C91.6807 176.757 90.7923 176.487 90.0368 175.981C89.2812 175.474 88.6923 174.755 88.3446 173.913C87.9968 173.071 87.9058 172.144 88.0831 171.251C88.2604 170.357 88.698 169.536 89.3405 168.891C89.9831 168.247 90.8018 167.808 91.693 167.63C92.5843 167.453 93.5081 167.544 94.3476 167.893C95.1872 168.241 95.9048 168.832 96.4096 169.59C96.9145 170.347 97.1839 171.238 97.1839 172.15C97.1839 173.372 96.6999 174.544 95.8382 175.408C94.9766 176.272 93.8079 176.757 92.5894 176.757ZM92.5894 170.245C92.2158 170.245 91.8507 170.356 91.5401 170.564C91.2295 170.772 90.9874 171.068 90.8445 171.414C90.7015 171.76 90.6641 172.141 90.737 172.508C90.8098 172.876 90.9897 173.213 91.2539 173.478C91.518 173.743 91.8545 173.923 92.2209 173.996C92.5873 174.069 92.967 174.032 93.3121 173.889C93.6573 173.745 93.9522 173.502 94.1598 173.191C94.3673 172.88 94.4781 172.513 94.4781 172.139C94.4752 171.638 94.275 171.159 93.9211 170.806C93.5672 170.454 93.0884 170.255 92.5894 170.255V170.245Z" fill="#2E2E3F"/>
<path d="M59.7672 176.757C58.936 176.754 58.1212 176.525 57.4099 176.093C56.6986 175.662 56.1175 175.045 55.7285 174.309C55.3396 173.572 55.1574 172.743 55.2015 171.911C55.2456 171.078 55.5143 170.274 55.979 169.583C56.4216 168.921 57.0279 168.386 57.7384 168.029C58.449 167.672 59.2396 167.507 60.0331 167.548C60.8266 167.59 61.5958 167.837 62.2656 168.265C62.9355 168.694 63.483 169.289 63.8548 169.994C64.2266 170.698 64.41 171.487 64.387 172.283C64.364 173.08 64.1354 173.856 63.7236 174.538C63.3118 175.219 62.7308 175.782 62.0373 176.171C61.3439 176.56 60.5617 176.762 59.7672 176.757ZM58.2032 171.097C57.9946 171.408 57.8827 171.774 57.8815 172.148C57.8804 172.523 57.9901 172.89 58.1968 173.202C58.4035 173.514 58.6979 173.758 59.0427 173.902C59.3876 174.046 59.7673 174.085 60.134 174.013C60.5006 173.94 60.8377 173.761 61.1026 173.496C61.3674 173.232 61.5481 172.895 61.6218 172.528C61.6955 172.16 61.6589 171.779 61.5166 171.433C61.3743 171.086 61.1327 170.79 60.8225 170.581C60.4064 170.303 59.8975 170.201 59.4069 170.298C58.9162 170.394 58.4835 170.681 58.2032 171.097Z" fill="#2E2E3F"/>
<path d="M111.363 117.813H25.8302V119.859H111.363V117.813Z" fill="#543C52"/>
<path d="M109.128 124.689H27.6594V126.735H109.128V124.689Z" fill="#543C52"/>
<path d="M106.893 131.565H30.3003V133.611H106.893V131.565Z" fill="#543C52"/>
<path d="M104.658 138.441H32.9412V140.487H104.658V138.441Z" fill="#543C52"/>
<path d="M102.422 145.318H35.5822V147.364H102.422V145.318Z" fill="#543C52"/>
<path d="M31.2538 108.914L29.3371 109.615L45.79 154.85L47.7067 154.148L31.2538 108.914Z" fill="#543C52"/>
<path d="M55.0471 108.972L53.09 109.55L66.1939 154.171L68.151 153.593L55.0471 108.972Z" fill="#543C52"/>
<path d="M75.0518 108.617L73.0127 108.686L74.5348 154.221L76.5739 154.153L75.0518 108.617Z" fill="#543C52"/>
<path d="M98.4982 109.871L84.793 154.492L86.7428 155.094L100.448 110.473L98.4982 109.871Z" fill="#543C52"/>
</g>
<defs>
<linearGradient id="paint0_linear_86_68" x1="107.158" y1="156.346" x2="105.628" y2="209.825" gradientUnits="userSpaceOnUse">
<stop offset="0.01"/>
<stop offset="0.13" stop-opacity="0.69"/>
<stop offset="1" stop-opacity="0"/>
</linearGradient>
<linearGradient id="paint1_linear_86_68" x1="124.676" y1="90.118" x2="120.089" y2="82.336" gradientUnits="userSpaceOnUse">
<stop offset="0.01"/>
<stop offset="0.13" stop-opacity="0.69"/>
<stop offset="1" stop-opacity="0"/>
</linearGradient>
<linearGradient id="paint2_linear_86_68" x1="144.445" y1="108.451" x2="131.178" y2="137.556" gradientUnits="userSpaceOnUse">
<stop offset="0.01"/>
<stop offset="0.13" stop-opacity="0.69"/>
<stop offset="1" stop-opacity="0"/>
</linearGradient>
<linearGradient id="paint3_linear_86_68" x1="146.144" y1="122.035" x2="152.692" y2="122.035" gradientUnits="userSpaceOnUse">
<stop offset="0.01"/>
<stop offset="0.13" stop-opacity="0.69"/>
<stop offset="1" stop-opacity="0"/>
</linearGradient>
<linearGradient id="paint4_linear_86_68" x1="130.407" y1="125.389" x2="143.558" y2="137.053" gradientUnits="userSpaceOnUse">
<stop offset="0.01"/>
<stop offset="0.13" stop-opacity="0.69"/>
<stop offset="1" stop-opacity="0"/>
</linearGradient>
<linearGradient id="paint5_linear_86_68" x1="173.154" y1="90.9863" x2="111.735" y2="87.538" gradientUnits="userSpaceOnUse">
<stop offset="0.01"/>
<stop offset="0.13" stop-opacity="0.69"/>
<stop offset="1" stop-opacity="0"/>
</linearGradient>
<linearGradient id="paint6_linear_86_68" x1="120.287" y1="176.101" x2="131.727" y2="176.101" gradientUnits="userSpaceOnUse">
<stop offset="0.01"/>
<stop offset="0.13" stop-opacity="0.69"/>
<stop offset="1" stop-opacity="0"/>
</linearGradient>
<linearGradient id="paint7_linear_86_68" x1="155.95" y1="175.71" x2="163.283" y2="175.71" gradientUnits="userSpaceOnUse">
<stop offset="0.01"/>
<stop offset="0.13" stop-opacity="0.69"/>
<stop offset="1" stop-opacity="0"/>
</linearGradient>
<linearGradient id="paint8_linear_86_68" x1="146.247" y1="100.918" x2="136.603" y2="82.2982" gradientUnits="userSpaceOnUse">
<stop offset="0.01"/>
<stop offset="0.13" stop-opacity="0.69"/>
<stop offset="1" stop-opacity="0"/>
</linearGradient>
<clipPath id="clip0_86_68">
<rect width="208" height="209" fill="white"/>
</clipPath>
</defs>
</svg>
